<svg width="255" height="214" viewBox="0 0 255 214" fill="none" xmlns="http://www.w3.org/2000/svg">
<mask id="path-1-inside-1_17_17" fill="white">
<path fill-rule="evenodd" clip-rule="evenodd" d="M214.245 0.492099C204.844 2.7961 198.715 10.1681 198.095 19.9201C197.671 26.5741 199.048 30.7671 203.123 35.2281L205.107 37.4001L201.849 39.0851C192.725 43.8031 184.72 55.3291 183.283 65.8181C182.768 69.5701 183.018 70.6691 184.785 72.4361C186.857 74.5081 187.637 74.5561 218.905 74.5561C249.572 74.5561 250.988 74.4731 252.905 72.5561C254.005 71.4561 254.905 69.5131 254.905 68.2381C254.905 65.0541 252.068 55.7681 250.138 52.6341C247.343 48.0941 240.523 41.4521 236.55 39.4001L232.695 37.4081L234.683 35.2321C238.762 30.7671 240.139 26.5761 239.715 19.9201C239.397 14.9111 238.69 12.7091 236.315 9.3271C231.417 2.3511 222.016 -1.4119 214.245 0.492099ZM223.866 9.1571C236.868 14.3591 232.923 34.5561 218.905 34.5561C209.017 34.5561 202.626 23.0621 207.655 14.3241C209.251 11.5501 215.629 7.6321 218.635 7.5781C219.311 7.5661 221.665 8.2761 223.866 9.1571ZM231.424 45.8291C238.656 49.5181 243.698 55.5261 245.726 62.8711L246.744 66.5561H218.905H191.066L192.084 62.8711C194.586 53.8091 201.762 46.7711 211.905 43.4311C216.451 41.9341 226.116 43.1211 231.424 45.8291ZM139.945 50.0081C138.081 52.2541 139.669 55.4381 143.097 56.3261C145.978 57.0721 144.069 58.3271 111.319 77.2041C92.1558 88.2501 76.0128 98.0231 75.4458 98.9221C74.2228 100.861 75.7548 103.886 78.2048 104.368C79.0768 104.54 94.5538 96.1671 112.598 85.7611C154.53 61.5791 149.897 63.8311 149.227 67.9581C148.782 70.6991 149.073 71.5751 150.717 72.4561C154.751 74.6141 156.261 72.4981 160.882 58.2031C162.518 53.1461 161.184 51.7951 152.769 49.9911C144.511 48.2201 141.425 48.2241 139.945 50.0081ZM29.1438 72.8911C20.5718 76.0001 14.9488 83.9881 14.9488 93.0561C14.9488 98.2941 17.4508 105.115 20.2098 107.398C21.6528 108.592 21.2328 109.145 16.4208 112.398C9.66277 116.966 4.43677 123.612 1.87677 130.895C-0.634226 138.039 -0.626226 142.025 1.90477 144.556C3.82177 146.473 5.23777 146.556 35.9048 146.556C67.1458 146.556 67.9548 146.506 70.0188 144.442C71.8358 142.625 72.0378 141.617 71.4588 137.255C70.1228 127.179 63.6768 117.591 54.1538 111.515C50.3158 109.066 50.0638 108.669 51.5618 107.429C54.3558 105.118 56.8608 98.3221 56.8608 93.0561C56.8608 78.5201 42.4768 68.0551 29.1438 72.8911ZM41.6218 81.2261C51.2968 85.8171 51.2968 100.295 41.6218 104.886C39.6858 105.805 37.1138 106.556 35.9048 106.556C34.6958 106.556 32.1238 105.805 30.1878 104.886C20.5948 100.334 20.4968 85.9601 30.0258 81.2661C34.3298 79.1461 37.2168 79.1361 41.6218 81.2261ZM199.105 89.7561C198.198 90.6631 197.905 105.682 197.905 151.221C197.905 209.779 197.96 211.515 199.839 212.521C200.957 213.119 209.008 213.556 218.905 213.556C228.802 213.556 236.853 213.119 237.971 212.521C239.85 211.515 239.905 209.779 239.905 151.221C239.905 105.682 239.612 90.6631 238.705 89.7561C237.013 88.0641 200.797 88.0641 199.105 89.7561ZM231.905 151.056V205.556H218.905H205.905V151.056V96.5561H218.905H231.905V151.056ZM138.105 113.756C137.205 114.656 136.905 127.015 136.905 163.221C136.905 209.915 136.968 211.519 138.839 212.521C141.396 213.889 174.414 213.889 176.971 212.521C178.842 211.519 178.905 209.915 178.905 163.221C178.905 127.015 178.605 114.656 177.705 113.756C176.013 112.064 139.797 112.064 138.105 113.756ZM45.4678 116.232C52.3078 118.563 60.2868 126.645 62.1908 133.171L63.6148 138.056L36.1098 138.322C20.9808 138.468 8.44777 138.432 8.25677 138.242C8.06677 138.051 8.66377 135.685 9.58377 132.984C11.7348 126.671 19.7698 118.467 25.9318 116.293C31.8678 114.197 39.4278 114.174 45.4678 116.232ZM170.905 163.056V205.556H157.905H144.905V163.056V120.556H157.905H170.905V163.056ZM77.1548 137.218C76.1868 137.609 75.9048 146.035 75.9048 174.604C75.9048 210.044 75.9808 211.526 77.8388 212.521C78.9568 213.119 87.0078 213.556 96.9048 213.556C106.802 213.556 114.853 213.119 115.971 212.521C117.829 211.526 117.905 210.045 117.905 174.628C117.905 141.941 117.726 137.701 116.323 137.163C114.44 136.44 78.9588 136.491 77.1548 137.218ZM109.905 175.056V205.556H96.9048H83.9048V175.056V144.556H96.9048H109.905V175.056ZM16.1548 161.218C15.2018 161.603 14.9048 167.635 14.9048 186.604C14.9048 210.18 15.0058 211.54 16.8388 212.521C17.9568 213.119 26.0078 213.556 35.9048 213.556C45.8018 213.556 53.8528 213.119 54.9708 212.521C56.8028 211.54 56.9048 210.181 56.9048 186.628C56.9048 164.883 56.7068 161.694 55.3228 161.163C53.4398 160.44 17.9588 160.491 16.1548 161.218ZM48.9048 187.056V205.556H35.9048H22.9048V187.056V168.556H35.9048H48.9048V187.056Z"/>
</mask>
<path fill-rule="evenodd" clip-rule="evenodd" d="M214.245 0.492099C204.844 2.7961 198.715 10.1681 198.095 19.9201C197.671 26.5741 199.048 30.7671 203.123 35.2281L205.107 37.4001L201.849 39.0851C192.725 43.8031 184.72 55.3291 183.283 65.8181C182.768 69.5701 183.018 70.6691 184.785 72.4361C186.857 74.5081 187.637 74.5561 218.905 74.5561C249.572 74.5561 250.988 74.4731 252.905 72.5561C254.005 71.4561 254.905 69.5131 254.905 68.2381C254.905 65.0541 252.068 55.7681 250.138 52.6341C247.343 48.0941 240.523 41.4521 236.55 39.4001L232.695 37.4081L234.683 35.2321C238.762 30.7671 240.139 26.5761 239.715 19.9201C239.397 14.9111 238.69 12.7091 236.315 9.3271C231.417 2.3511 222.016 -1.4119 214.245 0.492099ZM223.866 9.1571C236.868 14.3591 232.923 34.5561 218.905 34.5561C209.017 34.5561 202.626 23.0621 207.655 14.3241C209.251 11.5501 215.629 7.6321 218.635 7.5781C219.311 7.5661 221.665 8.2761 223.866 9.1571ZM231.424 45.8291C238.656 49.5181 243.698 55.5261 245.726 62.8711L246.744 66.5561H218.905H191.066L192.084 62.8711C194.586 53.8091 201.762 46.7711 211.905 43.4311C216.451 41.9341 226.116 43.1211 231.424 45.8291ZM139.945 50.0081C138.081 52.2541 139.669 55.4381 143.097 56.3261C145.978 57.0721 144.069 58.3271 111.319 77.2041C92.1558 88.2501 76.0128 98.0231 75.4458 98.9221C74.2228 100.861 75.7548 103.886 78.2048 104.368C79.0768 104.54 94.5538 96.1671 112.598 85.7611C154.53 61.5791 149.897 63.8311 149.227 67.9581C148.782 70.6991 149.073 71.5751 150.717 72.4561C154.751 74.6141 156.261 72.4981 160.882 58.2031C162.518 53.1461 161.184 51.7951 152.769 49.9911C144.511 48.2201 141.425 48.2241 139.945 50.0081ZM29.1438 72.8911C20.5718 76.0001 14.9488 83.9881 14.9488 93.0561C14.9488 98.2941 17.4508 105.115 20.2098 107.398C21.6528 108.592 21.2328 109.145 16.4208 112.398C9.66277 116.966 4.43677 123.612 1.87677 130.895C-0.634226 138.039 -0.626226 142.025 1.90477 144.556C3.82177 146.473 5.23777 146.556 35.9048 146.556C67.1458 146.556 67.9548 146.506 70.0188 144.442C71.8358 142.625 72.0378 141.617 71.4588 137.255C70.1228 127.179 63.6768 117.591 54.1538 111.515C50.3158 109.066 50.0638 108.669 51.5618 107.429C54.3558 105.118 56.8608 98.3221 56.8608 93.0561C56.8608 78.5201 42.4768 68.0551 29.1438 72.8911ZM41.6218 81.2261C51.2968 85.8171 51.2968 100.295 41.6218 104.886C39.6858 105.805 37.1138 106.556 35.9048 106.556C34.6958 106.556 32.1238 105.805 30.1878 104.886C20.5948 100.334 20.4968 85.9601 30.0258 81.2661C34.3298 79.1461 37.2168 79.1361 41.6218 81.2261ZM199.105 89.7561C198.198 90.6631 197.905 105.682 197.905 151.221C197.905 209.779 197.96 211.515 199.839 212.521C200.957 213.119 209.008 213.556 218.905 213.556C228.802 213.556 236.853 213.119 237.971 212.521C239.85 211.515 239.905 209.779 239.905 151.221C239.905 105.682 239.612 90.6631 238.705 89.7561C237.013 88.0641 200.797 88.0641 199.105 89.7561ZM231.905 151.056V205.556H218.905H205.905V151.056V96.5561H218.905H231.905V151.056ZM138.105 113.756C137.205 114.656 136.905 127.015 136.905 163.221C136.905 209.915 136.968 211.519 138.839 212.521C141.396 213.889 174.414 213.889 176.971 212.521C178.842 211.519 178.905 209.915 178.905 163.221C178.905 127.015 178.605 114.656 177.705 113.756C176.013 112.064 139.797 112.064 138.105 113.756ZM45.4678 116.232C52.3078 118.563 60.2868 126.645 62.1908 133.171L63.6148 138.056L36.1098 138.322C20.9808 138.468 8.44777 138.432 8.25677 138.242C8.06677 138.051 8.66377 135.685 9.58377 132.984C11.7348 126.671 19.7698 118.467 25.9318 116.293C31.8678 114.197 39.4278 114.174 45.4678 116.232ZM170.905 163.056V205.556H157.905H144.905V163.056V120.556H157.905H170.905V163.056ZM77.1548 137.218C76.1868 137.609 75.9048 146.035 75.9048 174.604C75.9048 210.044 75.9808 211.526 77.8388 212.521C78.9568 213.119 87.0078 213.556 96.9048 213.556C106.802 213.556 114.853 213.119 115.971 212.521C117.829 211.526 117.905 210.045 117.905 174.628C117.905 141.941 117.726 137.701 116.323 137.163C114.44 136.44 78.9588 136.491 77.1548 137.218ZM109.905 175.056V205.556H96.9048H83.9048V175.056V144.556H96.9048H109.905V175.056ZM16.1548 161.218C15.2018 161.603 14.9048 167.635 14.9048 186.604C14.9048 210.18 15.0058 211.54 16.8388 212.521C17.9568 213.119 26.0078 213.556 35.9048 213.556C45.8018 213.556 53.8528 213.119 54.9708 212.521C56.8028 211.54 56.9048 210.181 56.9048 186.628C56.9048 164.883 56.7068 161.694 55.3228 161.163C53.4398 160.44 17.9588 160.491 16.1548 161.218ZM48.9048 187.056V205.556H35.9048H22.9048V187.056V168.556H35.9048H48.9048V187.056Z" stroke="white" stroke-width="12" mask="url(#path-1-inside-1_17_17)"/>
</svg>
