<svg width="50" height="49" viewBox="0 0 50 49" fill="none" xmlns="http://www.w3.org/2000/svg">
<circle cx="24.5" cy="24.5" r="24.5" fill="black"/>
<path d="M21.7782 20.8901C19.2717 20.8901 17.2324 22.3369 17.2324 24.1151C17.2324 25.8933 19.2717 27.3401 21.7782 27.3401C24.2847 27.3401 26.3239 25.8933 26.3239 24.1151C26.3239 22.3369 24.2852 20.8901 21.7782 20.8901ZM24.1624 24.1151C24.1624 25.0147 23.0929 25.7467 21.7782 25.7467C20.4634 25.7467 19.3939 25.0147 19.3939 24.1151C19.3939 23.2156 20.4636 22.4836 21.7782 22.4836C23.0927 22.4836 24.1628 23.2154 24.1628 24.1151H24.1624Z" fill="white"/>
<path d="M33.3513 21.8118L31.5762 24.6843C31.5329 24.7545 31.4722 24.8124 31.3999 24.8523C31.3277 24.8923 31.2464 24.9131 31.1638 24.9126C31.0813 24.9121 31.0002 24.8904 30.9284 24.8496C30.8567 24.8088 30.7966 24.7503 30.754 24.6796L29.0018 21.7705C28.8928 21.5895 28.7388 21.4397 28.5547 21.3357C28.3707 21.2317 28.1628 21.177 27.9514 21.1769H25.9644L29.4277 26.4004C29.7442 26.8909 30.3328 27.1361 31.1934 27.136C32.0421 27.136 32.6248 26.8908 32.9415 26.4004L36.4064 21.1769H34.4905C34.2622 21.1769 34.0376 21.2352 33.8383 21.3464C33.6389 21.4575 33.4713 21.6177 33.3513 21.8118ZM41.5356 21.8296C41.2193 21.3392 40.6304 21.0941 39.7691 21.0942C38.9205 21.0942 38.338 21.3394 38.0218 21.8296L34.5558 27.0537H36.5651C36.7653 27.0537 36.9621 27.0025 37.1369 26.9051C37.3117 26.8077 37.4587 26.6673 37.5639 26.4971L39.4034 23.521C39.4451 23.4535 39.5036 23.3978 39.5731 23.3593C39.6426 23.3208 39.7209 23.3008 39.8004 23.3013C39.8798 23.3017 39.9579 23.3226 40.027 23.3619C40.0961 23.4011 40.1539 23.4575 40.1949 23.5255L41.9612 26.458C42.0706 26.6397 42.2252 26.79 42.41 26.8943C42.5948 26.9987 42.8034 27.0535 43.0157 27.0535H45.0001L41.5356 21.8296Z" fill="white"/>
<path d="M16.0732 21.1094L15.9813 26.3329C15.9824 26.8233 15.5593 27.1204 14.7102 27.1204C14.5856 27.1191 14.4613 27.1065 14.3389 27.083C14.1997 27.0694 14.0624 27.0402 13.9297 26.9959L13.8874 26.9867L13.8852 26.9805C13.5717 26.8679 13.2794 26.7036 13.0204 26.4943L9.36055 23.5616C8.98989 23.2646 8.55799 23.2624 8.56623 23.5571L8.6486 26.5332C8.65815 26.8792 8.4161 27.0898 8.00911 27.0898H6L6.09268 21.8657C6.0918 21.3753 6.51614 21.1302 7.36568 21.1303C8.17482 21.1131 8.96556 21.3725 9.60691 21.8657L13.351 24.8315C13.3987 24.821 13.441 24.7935 13.4698 24.7542C13.4987 24.7148 13.5123 24.6663 13.5079 24.6177L13.4282 21.7453C13.4173 21.3506 13.6933 21.1103 14.1583 21.1103L16.0732 21.1094Z" fill="white"/>
<path d="M42.099 26.0226L38.7358 26.0181C38.7042 26.0181 38.6728 26.0168 38.6411 26.0161L39.4087 24.8027C39.462 24.7183 39.5356 24.6486 39.6227 24.5999C39.7098 24.5511 39.8077 24.5249 39.9076 24.5234L42.0979 24.5274L42.099 26.0226Z" fill="white"/>
</svg>
